<svg xmlns="http://www.w3.org/2000/svg" width="192" height="192" viewBox="0 0 192 192" role="img" aria-label="Whale Investors icon">
  <defs>
    <linearGradient id="bg" x1="0" y1="0" x2="1" y2="1">
      <stop offset="0" stop-color="#1f8f4b"/>
      <stop offset="1" stop-color="#0f5ea8"/>
    </linearGradient>
  </defs>
  <rect width="192" height="192" rx="38" fill="url(#bg)"/>
  <path d="M36 107c17 0 26-8 38-20 10-10 22-17 40-17 14 0 27 5 40 15-3 10-9 19-18 26-17 14-38 18-61 18-14 0-27-2-39-6z" fill="#fff" opacity="0.96"/>
  <path d="M121 95c9-6 17-9 25-9 3 0 5 0 8 1-5 8-8 13-13 18" fill="none" stroke="#fff" stroke-width="8" stroke-linecap="round"/>
  <circle cx="90" cy="90" r="5" fill="#0f5ea8"/>
  <text x="96" y="164" text-anchor="middle" fill="#ffffff" font-size="34" font-family="Segoe UI, Arial, sans-serif" font-weight="700">WI</text>
</svg>
